<svg xmlns="http://www.w3.org/2000/svg" xmlns:xlink="http://www.w3.org/1999/xlink" version="1.1" id="Layer_1" x="0px" y="0px" viewBox="0 0 240 150" style="enable-background:new 0 0 240 150;" xml:space="preserve">
<style type="text/css">
	.st0{fill:#F4F4F4;}
	.st1{fill:#919191;}
</style>
<title>image</title>
<rect class="st0" width="240" height="150"/>
<path class="st1" d="M124.4,61.2h-15.8c-1.9,0-3.4,1.5-3.4,3.4v0v15.7c0,1.9,1.5,3.4,3.4,3.4l0,0h15.7c1.9,0,3.4-1.5,3.4-3.4v0V64.5  C127.6,62.7,126.2,61.3,124.4,61.2z M125.5,80.3c0,0.6-0.5,1.1-1.1,1.1h-13l9.6-9.6l4.5,4.5V80.3z M125.5,73.1l-3.7-3.7  c-0.4-0.4-1.1-0.5-1.6,0c0,0,0,0,0,0l-11.9,11.9c-0.4-0.2-0.7-0.6-0.7-1V64.5c0-0.6,0.4-1,1-1.1h15.7c0.6,0,1.1,0.5,1.1,1.1  L125.5,73.1z"/>
<path class="st1" d="M112.6,65.7c-1.5,0-2.8,1.3-2.8,2.8c0,1.5,1.3,2.8,2.8,2.8c1.5,0,2.8-1.3,2.8-2.8  C115.4,67,114.1,65.7,112.6,65.7L112.6,65.7z M112.6,69.1c-0.3,0-0.6-0.3-0.6-0.6c0-0.3,0.3-0.6,0.6-0.6c0.3,0,0.6,0.3,0.6,0.6v0  c0,0.3-0.3,0.5-0.6,0.5V69.1z"/>
</svg>